<?xml version="1.0" encoding="UTF-8" standalone="no" ?>
<!DOCTYPE svg PUBLIC "-//W3C//DTD SVG 1.1//EN" "http://www.w3.org/Graphics/SVG/1.1/DTD/svg11.dtd">
<svg xmlns="http://www.w3.org/2000/svg" xmlns:xlink="http://www.w3.org/1999/xlink" version="1.1" width="16" height="16" viewBox="435 435 630 630">
	<desc>Created with Fabric.js 5.2.4</desc>
	<g transform="matrix(1.85 0 0 1.85 750.94 750.54)"  >
		<path style="stroke: rgb(50,0,86); stroke-width: 0.75; stroke-dasharray: none; stroke-linecap: butt; stroke-dashoffset: 0; stroke-linejoin: miter; stroke-miterlimit: 4; fill: none; fill-rule: nonzero; opacity: 1;" vector-effect="non-scaling-stroke"  transform=" translate(-272.79, -453.92)" d="M 441.7547 453.91672 C 441.7547 547.2317067840281 366.10795678402803 622.8784499999999 272.79296999999997 622.8784499999999 C 179.47798321597196 622.8784499999999 103.83124000000004 547.2317067840281 103.83124000000004 453.91672 C 103.83124 360.60173321597193 179.47798321597196 284.95499 272.79297 284.95499 C 366.10795678402803 284.95499 441.75469999999996 360.6017332159719 441.75469999999996 453.91671999999994 z" stroke-linecap="round" />
	</g>

	<g transform="matrix(1.77 0 0 1.77 749.92 749.53)"  >
		<path style="stroke: rgb(50,0,86); stroke-width: 0.78; stroke-dasharray: none; stroke-linecap: butt; stroke-dashoffset: 0; stroke-linejoin: miter; stroke-miterlimit: 4; fill: none; fill-rule: nonzero; opacity: 1;" vector-effect="non-scaling-stroke"  transform=" translate(-272.79, -453.92)" d="M 441.7547 453.91672 C 441.7547 547.2317067840281 366.10795678402803 622.8784499999999 272.79296999999997 622.8784499999999 C 179.47798321597196 622.8784499999999 103.83124000000004 547.2317067840281 103.83124000000004 453.91672 C 103.83124 360.60173321597193 179.47798321597196 284.95499 272.79297 284.95499 C 366.10795678402803 284.95499 441.75469999999996 360.6017332159719 441.75469999999996 453.91671999999994 z" stroke-linecap="round" />
	</g>

	<g transform="matrix(0.84 -1.11 1.37 -0.18 485.54 902.66)" id="rect3258"  >
		<rect style="stroke: rgb(50,0,86); stroke-width: 0.59; stroke-dasharray: none; stroke-linecap: butt; stroke-dashoffset: 0; stroke-linejoin: miter; stroke-miterlimit: 4; fill: rgb(50,0,86); fill-rule: nonzero; opacity: 1;" vector-effect="non-scaling-stroke"  x="-2.135" y="-2.135" rx="0" ry="0" width="4.27" height="4.27" />
	</g>

	<g transform="matrix(0.84 -1.11 1.37 -0.18 1014.77 597.11)" id="rect3260"  >
		<rect style="stroke: rgb(50,0,86); stroke-width: 0.59; stroke-dasharray: none; stroke-linecap: butt; stroke-dashoffset: 0; stroke-linejoin: miter; stroke-miterlimit: 4; fill: rgb(50,0,86); fill-rule: nonzero; opacity: 1;" vector-effect="non-scaling-stroke"  x="-2.135" y="-2.135" rx="0" ry="0" width="4.27" height="4.27" />
	</g>

	<g transform="matrix(0.17 -1.38 1.1 -0.84 597.37 1014.51)" id="rect3264"  >
		<rect style="stroke: rgb(50,0,86); stroke-width: 0.59; stroke-dasharray: none; stroke-linecap: butt; stroke-dashoffset: 0; stroke-linejoin: miter; stroke-miterlimit: 4; fill: rgb(50,0,86); fill-rule: nonzero; opacity: 1;" vector-effect="non-scaling-stroke"  x="-2.135" y="-2.135" rx="0" ry="0" width="4.27" height="4.27" />
	</g>

	<g transform="matrix(0.17 -1.38 1.1 -0.84 902.92 485.27)" id="rect3266"  >
		<rect style="stroke: rgb(50,0,86); stroke-width: 0.59; stroke-dasharray: none; stroke-linecap: butt; stroke-dashoffset: 0; stroke-linejoin: miter; stroke-miterlimit: 4; fill: rgb(50,0,86); fill-rule: nonzero; opacity: 1;" vector-effect="non-scaling-stroke"  x="-2.135" y="-2.135" rx="0" ry="0" width="4.27" height="4.27" />
	</g>

	<g transform="matrix(1.38 0.17 0.84 1.1 485.54 597.11)" id="rect3270"  >
		<rect style="stroke: rgb(50,0,86); stroke-width: 0.59; stroke-dasharray: none; stroke-linecap: butt; stroke-dashoffset: 0; stroke-linejoin: miter; stroke-miterlimit: 4; fill: rgb(50,0,86); fill-rule: nonzero; opacity: 1;" vector-effect="non-scaling-stroke"  x="-2.135" y="-2.135" rx="0" ry="0" width="4.27" height="4.27" />
	</g>

	<g transform="matrix(1.38 0.17 0.84 1.1 1014.78 902.66)" id="rect3272"  >
		<rect style="stroke: rgb(50,0,86); stroke-width: 0.59; stroke-dasharray: none; stroke-linecap: butt; stroke-dashoffset: 0; stroke-linejoin: miter; stroke-miterlimit: 4; fill: rgb(50,0,86); fill-rule: nonzero; opacity: 1;" vector-effect="non-scaling-stroke"  x="-2.135" y="-2.135" rx="0" ry="0" width="4.27" height="4.27" />
	</g>

	<g transform="matrix(1.11 0.84 0.18 1.37 597.39 485.28)" id="rect3276"  >
		<rect style="stroke: rgb(50,0,86); stroke-width: 0.59; stroke-dasharray: none; stroke-linecap: butt; stroke-dashoffset: 0; stroke-linejoin: miter; stroke-miterlimit: 4; fill: rgb(50,0,86); fill-rule: nonzero; opacity: 1;" vector-effect="non-scaling-stroke"  x="-2.135" y="-2.135" rx="0" ry="0" width="4.27" height="4.27" />
	</g>

	<g transform="matrix(1.11 0.84 0.18 1.37 902.95 1014.51)" id="rect3278"  >
		<rect style="stroke: rgb(50,0,86); stroke-width: 0.59; stroke-dasharray: none; stroke-linecap: butt; stroke-dashoffset: 0; stroke-linejoin: miter; stroke-miterlimit: 4; fill: rgb(50,0,86); fill-rule: nonzero; opacity: 1;" vector-effect="non-scaling-stroke"  x="-2.135" y="-2.135" rx="0" ry="0" width="4.27" height="4.27" />
	</g>

	<g transform="matrix(-1.38 -0.15 -0.15 1.38 782.03 446.05)" id="rect3290"  >
		<rect style="stroke: rgb(50,0,86); stroke-width: 1; stroke-dasharray: none; stroke-linecap: butt; stroke-dashoffset: 0; stroke-linejoin: miter; stroke-miterlimit: 4; fill: none; fill-rule: nonzero; opacity: 1;" vector-effect="non-scaling-stroke"  x="0" y="-3.96" rx="0" ry="0" width="0" height="7.92" />
	</g>

	<g transform="matrix(-1.36 -0.29 -0.29 1.36 813.61 451.05)" id="rect3292"  >
		<rect style="stroke: rgb(50,0,86); stroke-width: 1; stroke-dasharray: none; stroke-linecap: butt; stroke-dashoffset: 0; stroke-linejoin: miter; stroke-miterlimit: 4; fill: none; fill-rule: nonzero; opacity: 1;" vector-effect="non-scaling-stroke"  x="0" y="-3.96" rx="0" ry="0" width="0" height="7.92" />
	</g>

	<g transform="matrix(-1.32 -0.43 -0.43 1.32 844.5 459.32)" id="rect3294"  >
		<rect style="stroke: rgb(50,0,86); stroke-width: 1; stroke-dasharray: none; stroke-linecap: butt; stroke-dashoffset: 0; stroke-linejoin: miter; stroke-miterlimit: 4; fill: none; fill-rule: nonzero; opacity: 1;" vector-effect="non-scaling-stroke"  x="0" y="-3.96" rx="0" ry="0" width="0" height="7.92" />
	</g>

	<g transform="matrix(-1.27 -0.57 -0.57 1.27 874.36 470.79)" id="rect3296"  >
		<rect style="stroke: rgb(50,0,86); stroke-width: 1; stroke-dasharray: none; stroke-linecap: butt; stroke-dashoffset: 0; stroke-linejoin: miter; stroke-miterlimit: 4; fill: none; fill-rule: nonzero; opacity: 1;" vector-effect="non-scaling-stroke"  x="0" y="-3.96" rx="0" ry="0" width="0" height="7.92" />
	</g>

	<g transform="matrix(-1.12 -0.82 -0.82 1.12 929.67 502.73)" id="rect3306"  >
		<rect style="stroke: rgb(50,0,86); stroke-width: 1; stroke-dasharray: none; stroke-linecap: butt; stroke-dashoffset: 0; stroke-linejoin: miter; stroke-miterlimit: 4; fill: none; fill-rule: nonzero; opacity: 1;" vector-effect="non-scaling-stroke"  x="0" y="-3.96" rx="0" ry="0" width="0" height="7.92" />
	</g>

	<g transform="matrix(-1.03 -0.93 -0.93 1.03 954.53 522.85)" id="rect3308"  >
		<rect style="stroke: rgb(50,0,86); stroke-width: 1; stroke-dasharray: none; stroke-linecap: butt; stroke-dashoffset: 0; stroke-linejoin: miter; stroke-miterlimit: 4; fill: none; fill-rule: nonzero; opacity: 1;" vector-effect="non-scaling-stroke"  x="0" y="-3.96" rx="0" ry="0" width="0" height="7.92" />
	</g>

	<g transform="matrix(-0.93 -1.03 -1.03 0.93 977.14 545.46)" id="rect3310"  >
		<rect style="stroke: rgb(50,0,86); stroke-width: 1; stroke-dasharray: none; stroke-linecap: butt; stroke-dashoffset: 0; stroke-linejoin: miter; stroke-miterlimit: 4; fill: none; fill-rule: nonzero; opacity: 1;" vector-effect="non-scaling-stroke"  x="0" y="-3.96" rx="0" ry="0" width="0" height="7.92" />
	</g>

	<g transform="matrix(-0.82 -1.12 -1.12 0.82 997.26 570.32)" id="rect3312"  >
		<rect style="stroke: rgb(50,0,86); stroke-width: 1; stroke-dasharray: none; stroke-linecap: butt; stroke-dashoffset: 0; stroke-linejoin: miter; stroke-miterlimit: 4; fill: none; fill-rule: nonzero; opacity: 1;" vector-effect="non-scaling-stroke"  x="0" y="-3.96" rx="0" ry="0" width="0" height="7.92" />
	</g>

	<g transform="matrix(-0.57 -1.27 -1.27 0.57 1029.19 625.63)" id="rect3316"  >
	<rect style="stroke: rgb(50,0,86); stroke-width: 1; stroke-dasharray: none; stroke-linecap: butt; stroke-dashoffset: 0; stroke-linejoin: miter; stroke-miterlimit: 4; fill: none; fill-rule: nonzero; opacity: 1;" vector-effect="non-scaling-stroke"  x="0" y="-3.96" rx="0" ry="0" width="0" height="7.92" />
	</g>
	<g transform="matrix(-0.43 -1.32 -1.32 0.43 1040.66 655.49)" id="rect3318"  >
	<rect style="stroke: rgb(50,0,86); stroke-width: 1; stroke-dasharray: none; stroke-linecap: butt; stroke-dashoffset: 0; stroke-linejoin: miter; stroke-miterlimit: 4; fill: none; fill-rule: nonzero; opacity: 1;" vector-effect="non-scaling-stroke"  x="0" y="-3.96" rx="0" ry="0" width="0" height="7.92" />
	</g>
	<g transform="matrix(-0.29 -1.36 -1.36 0.29 1048.93 686.37)" id="rect3320"  >
	<rect style="stroke: rgb(50,0,86); stroke-width: 1; stroke-dasharray: none; stroke-linecap: butt; stroke-dashoffset: 0; stroke-linejoin: miter; stroke-miterlimit: 4; fill: none; fill-rule: nonzero; opacity: 1;" vector-effect="non-scaling-stroke"  x="0" y="-3.96" rx="0" ry="0" width="0" height="7.92" />
	</g>
	<g transform="matrix(-0.15 -1.38 -1.38 0.15 1053.94 717.96)" id="rect3322"  >
	<rect style="stroke: rgb(50,0,86); stroke-width: 1; stroke-dasharray: none; stroke-linecap: butt; stroke-dashoffset: 0; stroke-linejoin: miter; stroke-miterlimit: 4; fill: none; fill-rule: nonzero; opacity: 1;" vector-effect="non-scaling-stroke"  x="0" y="-3.96" rx="0" ry="0" width="0" height="7.92" />
	</g>
	<g transform="matrix(0.15 -1.38 -1.38 -0.15 1053.93 781.83)" id="rect3326"  >
	<rect style="stroke: rgb(50,0,86); stroke-width: 1; stroke-dasharray: none; stroke-linecap: butt; stroke-dashoffset: 0; stroke-linejoin: miter; stroke-miterlimit: 4; fill: none; fill-rule: nonzero; opacity: 1;" vector-effect="non-scaling-stroke"  x="0" y="-3.96" rx="0" ry="0" width="0" height="7.92" />
	</g>
	<g transform="matrix(0.29 -1.36 -1.36 -0.29 1048.94 813.42)" id="rect3328"  >
	<rect style="stroke: rgb(50,0,86); stroke-width: 1; stroke-dasharray: none; stroke-linecap: butt; stroke-dashoffset: 0; stroke-linejoin: miter; stroke-miterlimit: 4; fill: none; fill-rule: nonzero; opacity: 1;" vector-effect="non-scaling-stroke"  x="0" y="-3.96" rx="0" ry="0" width="0" height="7.92" />
	</g>
	<g transform="matrix(0.43 -1.32 -1.32 -0.43 1040.66 844.31)" id="rect3330"  >
	<rect style="stroke: rgb(50,0,86); stroke-width: 1; stroke-dasharray: none; stroke-linecap: butt; stroke-dashoffset: 0; stroke-linejoin: miter; stroke-miterlimit: 4; fill: none; fill-rule: nonzero; opacity: 1;" vector-effect="non-scaling-stroke"  x="0" y="-3.96" rx="0" ry="0" width="0" height="7.92" />
	</g>
	<g transform="matrix(0.57 -1.27 -1.27 -0.57 1029.2 874.16)" id="rect3332"  >
	<rect style="stroke: rgb(50,0,86); stroke-width: 1; stroke-dasharray: none; stroke-linecap: butt; stroke-dashoffset: 0; stroke-linejoin: miter; stroke-miterlimit: 4; fill: none; fill-rule: nonzero; opacity: 1;" vector-effect="non-scaling-stroke"  x="0" y="-3.96" rx="0" ry="0" width="0" height="7.92" />
	</g>
	<g transform="matrix(0.82 -1.12 -1.12 -0.82 997.26 929.47)" id="rect3336"  >
	<rect style="stroke: rgb(50,0,86); stroke-width: 1; stroke-dasharray: none; stroke-linecap: butt; stroke-dashoffset: 0; stroke-linejoin: miter; stroke-miterlimit: 4; fill: none; fill-rule: nonzero; opacity: 1;" vector-effect="non-scaling-stroke"  x="0" y="-3.96" rx="0" ry="0" width="0" height="7.92" />
	</g>
	<g transform="matrix(0.93 -1.03 -1.03 -0.93 977.14 954.33)" id="rect3338"  >
	<rect style="stroke: rgb(50,0,86); stroke-width: 1; stroke-dasharray: none; stroke-linecap: butt; stroke-dashoffset: 0; stroke-linejoin: miter; stroke-miterlimit: 4; fill: none; fill-rule: nonzero; opacity: 1;" vector-effect="non-scaling-stroke"  x="0" y="-3.96" rx="0" ry="0" width="0" height="7.92" />
	</g>
	<g transform="matrix(1.03 -0.93 -0.93 -1.03 954.52 976.94)" id="rect3340"  >
	<rect style="stroke: rgb(50,0,86); stroke-width: 1; stroke-dasharray: none; stroke-linecap: butt; stroke-dashoffset: 0; stroke-linejoin: miter; stroke-miterlimit: 4; fill: none; fill-rule: nonzero; opacity: 1;" vector-effect="non-scaling-stroke"  x="0" y="-3.96" rx="0" ry="0" width="0" height="7.92" />
	</g>
	<g transform="matrix(1.12 -0.82 -0.82 -1.12 929.67 997.06)" id="rect3342"  >
	<rect style="stroke: rgb(50,0,86); stroke-width: 1; stroke-dasharray: none; stroke-linecap: butt; stroke-dashoffset: 0; stroke-linejoin: miter; stroke-miterlimit: 4; fill: none; fill-rule: nonzero; opacity: 1;" vector-effect="non-scaling-stroke"  x="0" y="-3.96" rx="0" ry="0" width="0" height="7.92" />
	</g>
	<g transform="matrix(1.27 -0.57 -0.57 -1.27 874.36 1029)" id="rect3346"  >
	<rect style="stroke: rgb(50,0,86); stroke-width: 1; stroke-dasharray: none; stroke-linecap: butt; stroke-dashoffset: 0; stroke-linejoin: miter; stroke-miterlimit: 4; fill: none; fill-rule: nonzero; opacity: 1;" vector-effect="non-scaling-stroke"  x="0" y="-3.96" rx="0" ry="0" width="0" height="7.92" />
	</g>
	<g transform="matrix(1.32 -0.43 -0.43 -1.32 844.5 1040.46)" id="rect3348"  >
	<rect style="stroke: rgb(50,0,86); stroke-width: 1; stroke-dasharray: none; stroke-linecap: butt; stroke-dashoffset: 0; stroke-linejoin: miter; stroke-miterlimit: 4; fill: none; fill-rule: nonzero; opacity: 1;" vector-effect="non-scaling-stroke"  x="0" y="-3.96" rx="0" ry="0" width="0" height="7.92" />
	</g>
	<g transform="matrix(1.36 -0.29 -0.29 -1.36 813.61 1048.74)" id="rect3350"  >
	<rect style="stroke: rgb(50,0,86); stroke-width: 1; stroke-dasharray: none; stroke-linecap: butt; stroke-dashoffset: 0; stroke-linejoin: miter; stroke-miterlimit: 4; fill: none; fill-rule: nonzero; opacity: 1;" vector-effect="non-scaling-stroke"  x="0" y="-3.96" rx="0" ry="0" width="0" height="7.92" />
	</g>
	<g transform="matrix(1.38 -0.15 -0.15 -1.38 782.02 1053.74)" id="rect3352"  >
	<rect style="stroke: rgb(50,0,86); stroke-width: 1; stroke-dasharray: none; stroke-linecap: butt; stroke-dashoffset: 0; stroke-linejoin: miter; stroke-miterlimit: 4; fill: none; fill-rule: nonzero; opacity: 1;" vector-effect="non-scaling-stroke"  x="0" y="-3.96" rx="0" ry="0" width="0" height="7.92" />
	</g>
	<g transform="matrix(1.38 0.15 0.15 -1.38 718.16 1053.74)" id="rect3356"  >
	<rect style="stroke: rgb(50,0,86); stroke-width: 1; stroke-dasharray: none; stroke-linecap: butt; stroke-dashoffset: 0; stroke-linejoin: miter; stroke-miterlimit: 4; fill: none; fill-rule: nonzero; opacity: 1;" vector-effect="non-scaling-stroke"  x="0" y="-3.96" rx="0" ry="0" width="0" height="7.92" />
	</g>
	<g transform="matrix(1.36 0.29 0.29 -1.36 686.57 1048.74)" id="rect3358"  >
	<rect style="stroke: rgb(50,0,86); stroke-width: 1; stroke-dasharray: none; stroke-linecap: butt; stroke-dashoffset: 0; stroke-linejoin: miter; stroke-miterlimit: 4; fill: none; fill-rule: nonzero; opacity: 1;" vector-effect="non-scaling-stroke"  x="0" y="-3.96" rx="0" ry="0" width="0" height="7.92" />
	</g>
	<g transform="matrix(1.32 0.43 0.43 -1.32 655.68 1040.46)" id="rect3360"  >
	<rect style="stroke: rgb(50,0,86); stroke-width: 1; stroke-dasharray: none; stroke-linecap: butt; stroke-dashoffset: 0; stroke-linejoin: miter; stroke-miterlimit: 4; fill: none; fill-rule: nonzero; opacity: 1;" vector-effect="non-scaling-stroke"  x="0" y="-3.96" rx="0" ry="0" width="0" height="7.92" />
	</g>
	<g transform="matrix(1.27 0.57 0.57 -1.27 625.82 1029)" id="rect3362"  >
	<rect style="stroke: rgb(50,0,86); stroke-width: 1; stroke-dasharray: none; stroke-linecap: butt; stroke-dashoffset: 0; stroke-linejoin: miter; stroke-miterlimit: 4; fill: none; fill-rule: nonzero; opacity: 1;" vector-effect="non-scaling-stroke"  x="0" y="-3.96" rx="0" ry="0" width="0" height="7.92" />
	</g>
	<g transform="matrix(1.12 0.82 0.82 -1.12 570.52 997.06)" id="rect3366"  >
	<rect style="stroke: rgb(50,0,86); stroke-width: 1; stroke-dasharray: none; stroke-linecap: butt; stroke-dashoffset: 0; stroke-linejoin: miter; stroke-miterlimit: 4; fill: none; fill-rule: nonzero; opacity: 1;" vector-effect="non-scaling-stroke"  x="0" y="-3.96" rx="0" ry="0" width="0" height="7.92" />
	</g>
	<g transform="matrix(1.03 0.93 0.93 -1.03 545.66 976.94)" id="rect3368"  >
	<rect style="stroke: rgb(50,0,86); stroke-width: 1; stroke-dasharray: none; stroke-linecap: butt; stroke-dashoffset: 0; stroke-linejoin: miter; stroke-miterlimit: 4; fill: none; fill-rule: nonzero; opacity: 1;" vector-effect="non-scaling-stroke"  x="0" y="-3.96" rx="0" ry="0" width="0" height="7.92" />
	</g>
	<g transform="matrix(0.93 1.03 1.03 -0.93 523.04 954.33)" id="rect3370"  >
	<rect style="stroke: rgb(50,0,86); stroke-width: 1; stroke-dasharray: none; stroke-linecap: butt; stroke-dashoffset: 0; stroke-linejoin: miter; stroke-miterlimit: 4; fill: none; fill-rule: nonzero; opacity: 1;" vector-effect="non-scaling-stroke"  x="0" y="-3.96" rx="0" ry="0" width="0" height="7.92" />
	</g>
	<g transform="matrix(0.82 1.12 1.12 -0.82 502.93 929.47)" id="rect3372"  >
	<rect style="stroke: rgb(50,0,86); stroke-width: 1; stroke-dasharray: none; stroke-linecap: butt; stroke-dashoffset: 0; stroke-linejoin: miter; stroke-miterlimit: 4; fill: none; fill-rule: nonzero; opacity: 1;" vector-effect="non-scaling-stroke"  x="0" y="-3.96" rx="0" ry="0" width="0" height="7.92" />
	</g>
	<g transform="matrix(0.57 1.27 1.27 -0.57 470.99 874.16)" id="rect3376"  >
	<rect style="stroke: rgb(50,0,86); stroke-width: 1; stroke-dasharray: none; stroke-linecap: butt; stroke-dashoffset: 0; stroke-linejoin: miter; stroke-miterlimit: 4; fill: none; fill-rule: nonzero; opacity: 1;" vector-effect="non-scaling-stroke"  x="0" y="-3.96" rx="0" ry="0" width="0" height="7.92" />
	</g>
	<g transform="matrix(0.43 1.32 1.32 -0.43 459.52 844.3)" id="rect3378"  >
	<rect style="stroke: rgb(50,0,86); stroke-width: 1; stroke-dasharray: none; stroke-linecap: butt; stroke-dashoffset: 0; stroke-linejoin: miter; stroke-miterlimit: 4; fill: none; fill-rule: nonzero; opacity: 1;" vector-effect="non-scaling-stroke"  x="0" y="-3.96" rx="0" ry="0" width="0" height="7.92" />
	</g>
	<g transform="matrix(0.29 1.36 1.36 -0.29 451.25 813.42)" id="rect3380"  >
	<rect style="stroke: rgb(50,0,86); stroke-width: 1; stroke-dasharray: none; stroke-linecap: butt; stroke-dashoffset: 0; stroke-linejoin: miter; stroke-miterlimit: 4; fill: none; fill-rule: nonzero; opacity: 1;" vector-effect="non-scaling-stroke"  x="0" y="-3.96" rx="0" ry="0" width="0" height="7.92" />
	</g>
	<g transform="matrix(0.15 1.38 1.38 -0.15 446.25 781.83)" id="rect3382"  >
	<rect style="stroke: rgb(50,0,86); stroke-width: 1; stroke-dasharray: none; stroke-linecap: butt; stroke-dashoffset: 0; stroke-linejoin: miter; stroke-miterlimit: 4; fill: none; fill-rule: nonzero; opacity: 1;" vector-effect="non-scaling-stroke"  x="0" y="-3.96" rx="0" ry="0" width="0" height="7.92" />
	</g>
	<g transform="matrix(-0.15 1.38 1.38 0.15 446.25 717.96)" id="rect3386"  >
	<rect style="stroke: rgb(50,0,86); stroke-width: 1; stroke-dasharray: none; stroke-linecap: butt; stroke-dashoffset: 0; stroke-linejoin: miter; stroke-miterlimit: 4; fill: none; fill-rule: nonzero; opacity: 1;" vector-effect="non-scaling-stroke"  x="0" y="-3.96" rx="0" ry="0" width="0" height="7.92" />
	</g>
	<g transform="matrix(-0.29 1.36 1.36 0.29 451.25 686.37)" id="rect3388"  >
	<rect style="stroke: rgb(50,0,86); stroke-width: 1; stroke-dasharray: none; stroke-linecap: butt; stroke-dashoffset: 0; stroke-linejoin: miter; stroke-miterlimit: 4; fill: none; fill-rule: nonzero; opacity: 1;" vector-effect="non-scaling-stroke"  x="0" y="-3.96" rx="0" ry="0" width="0" height="7.92" />
	</g>
	<g transform="matrix(-0.43 1.32 1.32 0.43 459.52 655.48)" id="rect3390"  >
	<rect style="stroke: rgb(50,0,86); stroke-width: 1; stroke-dasharray: none; stroke-linecap: butt; stroke-dashoffset: 0; stroke-linejoin: miter; stroke-miterlimit: 4; fill: none; fill-rule: nonzero; opacity: 1;" vector-effect="non-scaling-stroke"  x="0" y="-3.96" rx="0" ry="0" width="0" height="7.92" />
	</g>
	<g transform="matrix(-0.57 1.27 1.27 0.57 470.99 625.62)" id="rect3392"  >
	<rect style="stroke: rgb(50,0,86); stroke-width: 1; stroke-dasharray: none; stroke-linecap: butt; stroke-dashoffset: 0; stroke-linejoin: miter; stroke-miterlimit: 4; fill: none; fill-rule: nonzero; opacity: 1;" vector-effect="non-scaling-stroke"  x="0" y="-3.96" rx="0" ry="0" width="0" height="7.92" />
	</g>
	<g transform="matrix(-0.82 1.12 1.12 0.82 502.92 570.32)" id="rect3396"  >
	<rect style="stroke: rgb(50,0,86); stroke-width: 1; stroke-dasharray: none; stroke-linecap: butt; stroke-dashoffset: 0; stroke-linejoin: miter; stroke-miterlimit: 4; fill: none; fill-rule: nonzero; opacity: 1;" vector-effect="non-scaling-stroke"  x="0" y="-3.96" rx="0" ry="0" width="0" height="7.92" />
	</g>
	<g transform="matrix(-0.93 1.03 1.03 0.93 523.04 545.46)" id="rect3398"  >
	<rect style="stroke: rgb(50,0,86); stroke-width: 1; stroke-dasharray: none; stroke-linecap: butt; stroke-dashoffset: 0; stroke-linejoin: miter; stroke-miterlimit: 4; fill: none; fill-rule: nonzero; opacity: 1;" vector-effect="non-scaling-stroke"  x="0" y="-3.96" rx="0" ry="0" width="0" height="7.92" />
	</g>
	<g transform="matrix(-1.03 0.93 0.93 1.03 545.66 522.85)" id="rect3400"  >
	<rect style="stroke: rgb(50,0,86); stroke-width: 1; stroke-dasharray: none; stroke-linecap: butt; stroke-dashoffset: 0; stroke-linejoin: miter; stroke-miterlimit: 4; fill: none; fill-rule: nonzero; opacity: 1;" vector-effect="non-scaling-stroke"  x="0" y="-3.96" rx="0" ry="0" width="0" height="7.92" />
	</g>
	<g transform="matrix(-1.12 0.82 0.82 1.12 570.52 502.73)" id="rect3402"  >
	<rect style="stroke: rgb(50,0,86); stroke-width: 1; stroke-dasharray: none; stroke-linecap: butt; stroke-dashoffset: 0; stroke-linejoin: miter; stroke-miterlimit: 4; fill: none; fill-rule: nonzero; opacity: 1;" vector-effect="non-scaling-stroke"  x="0" y="-3.96" rx="0" ry="0" width="0" height="7.92" />
	</g>
	<g transform="matrix(-1.27 0.57 0.57 1.27 625.82 470.79)" id="rect3406"  >
	<rect style="stroke: rgb(50,0,86); stroke-width: 1; stroke-dasharray: none; stroke-linecap: butt; stroke-dashoffset: 0; stroke-linejoin: miter; stroke-miterlimit: 4; fill: none; fill-rule: nonzero; opacity: 1;" vector-effect="non-scaling-stroke"  x="0" y="-3.96" rx="0" ry="0" width="0" height="7.92" />
	</g>
	<g transform="matrix(-1.32 0.43 0.43 1.32 655.68 459.33)" id="rect3408"  >
	<rect style="stroke: rgb(50,0,86); stroke-width: 1; stroke-dasharray: none; stroke-linecap: butt; stroke-dashoffset: 0; stroke-linejoin: miter; stroke-miterlimit: 4; fill: none; fill-rule: nonzero; opacity: 1;" vector-effect="non-scaling-stroke"  x="0" y="-3.96" rx="0" ry="0" width="0" height="7.92" />
	</g>
	<g transform="matrix(-1.36 0.29 0.29 1.36 686.57 451.05)" id="rect3410"  >
	<rect style="stroke: rgb(50,0,86); stroke-width: 1; stroke-dasharray: none; stroke-linecap: butt; stroke-dashoffset: 0; stroke-linejoin: miter; stroke-miterlimit: 4; fill: none; fill-rule: nonzero; opacity: 1;" vector-effect="non-scaling-stroke"  x="0" y="-3.96" rx="0" ry="0" width="0" height="7.92" />
	</g>
	<g transform="matrix(-1.38 0.15 0.15 1.38 718.16 446.05)" id="rect3412"  >
	<rect style="stroke: rgb(50,0,86); stroke-width: 1; stroke-dasharray: none; stroke-linecap: butt; stroke-dashoffset: 0; stroke-linejoin: miter; stroke-miterlimit: 4; fill: none; fill-rule: nonzero; opacity: 1;" vector-effect="non-scaling-stroke"  x="0" y="-3.96" rx="0" ry="0" width="0" height="7.92" />
	</g>

	<g transform="matrix(1.39 0 0 1.39 662.52 910.65)" style="" id="text3474"  >
		<text xml:space="preserve" font-family="Times New Roman" font-size="40" font-style="normal" font-weight="normal" style="stroke: none; stroke-width: 1; stroke-dasharray: none; stroke-linecap: butt; stroke-dashoffset: 0; stroke-linejoin: miter; stroke-miterlimit: 4; fill: rgb(50,0,86); fill-rule: nonzero; opacity: 1; white-space: pre;" ></text>
	</g>

	<g transform="matrix(1.39 0 0 1.39 750.35 749.96)"  >
		<path style="stroke: rgb(50,0,86); stroke-width: 1; stroke-dasharray: none; stroke-linecap: butt; stroke-dashoffset: 0; stroke-linejoin: miter; stroke-miterlimit: 4; fill: none; fill-rule: nonzero; opacity: 1;" vector-effect="non-scaling-stroke"  transform=" translate(-328.27, -398.47)" d="M 487.76067 398.46518 C 487.76067 486.5470561497526 416.3562011497526 557.951525 328.274325 557.951525 C 240.1924488502474 557.951525 168.78797999999995 486.5470561497526 168.78797999999995 398.46518 C 168.78798 310.38330385024733 240.1924488502474 238.97883499999995 328.274325 238.97883499999995 C 416.3562011497526 238.97883499999995 487.76067000000006 310.38330385024733 487.76067000000006 398.4651799999999 z" stroke-linecap="round" />
	</g>

	<g transform="matrix(1.3 0 0 1.3 749.87 749.47)"  >
		<path style="stroke: rgb(50,0,86); stroke-width: 1.07; stroke-dasharray: none; stroke-linecap: butt; stroke-dashoffset: 0; stroke-linejoin: miter; stroke-miterlimit: 4; fill: none; fill-rule: nonzero; opacity: 1;" vector-effect="non-scaling-stroke"  transform=" translate(-328.27, -398.47)" d="M 487.76067 398.46518 C 487.76067 486.5470561497526 416.3562011497526 557.951525 328.274325 557.951525 C 240.1924488502474 557.951525 168.78797999999995 486.5470561497526 168.78797999999995 398.46518 C 168.78798 310.38330385024733 240.1924488502474 238.97883499999995 328.274325 238.97883499999995 C 416.3562011497526 238.97883499999995 487.76067000000006 310.38330385024733 487.76067000000006 398.4651799999999 z" stroke-linecap="round" />
	</g>

	<g transform="matrix(0.94 0 0 2.06 750.85 491.8)" style="" id="text3495"  >
		<text xml:space="preserve" font-family="Times New Roman" font-size="49.72201538" font-style="normal" font-weight="bold" style="stroke: rgb(50,0,86); stroke-width: 0.5; stroke-dasharray: none; stroke-linecap: butt; stroke-dashoffset: 0; stroke-linejoin: miter; stroke-miterlimit: 4; fill: rgb(50,0,86); fill-rule: nonzero; opacity: 1; white-space: pre;" ><tspan x="-37.3" y="15.62" >XII</tspan></text>
	</g>

	<g transform="matrix(0.81 0.47 -1.03 1.78 879.72 526.58)" style="" id="text3292"  >
		<text xml:space="preserve" font-family="Times New Roman" font-size="49.72201538" font-style="normal" font-weight="bold" style="stroke: rgb(50,0,86); stroke-width: 0.5; stroke-dasharray: none; stroke-linecap: butt; stroke-dashoffset: 0; stroke-linejoin: miter; stroke-miterlimit: 4; fill: rgb(50,0,86); fill-rule: nonzero; opacity: 1; white-space: pre;" ><tspan x="-9.67" y="15.62" >I</tspan></text>
	</g>

	<g transform="matrix(0.47 0.81 -1.78 1.03 974.03 621.35)" style="" id="text3296"  >
		<text xml:space="preserve" font-family="Times New Roman" font-size="49.72201538" font-style="normal" font-weight="bold" style="stroke: rgb(50,0,86); stroke-width: 0.5; stroke-dasharray: none; stroke-linecap: butt; stroke-dashoffset: 0; stroke-linejoin: miter; stroke-miterlimit: 4; fill: rgb(50,0,86); fill-rule: nonzero; opacity: 1; white-space: pre;" ><tspan x="-19.35" y="15.62" >II</tspan></text>
	</g>

	<g transform="matrix(0 0.94 -2.06 0 1008.3 750.58)" style="" id="text3300"  >
		<text xml:space="preserve" font-family="Times New Roman" font-size="49.72201538" font-style="normal" font-weight="bold" style="stroke: rgb(50,0,86); stroke-width: 0.5; stroke-dasharray: none; stroke-linecap: butt; stroke-dashoffset: 0; stroke-linejoin: miter; stroke-miterlimit: 4; fill: rgb(50,0,86); fill-rule: nonzero; opacity: 1; white-space: pre;" ><tspan x="-29.02" y="15.62" >III</tspan></text>
	</g>

	<g transform="matrix(-0.47 0.81 -1.78 -1.03 973.44 879.66)" style="" id="text3304"  >
		<text xml:space="preserve" font-family="Times New Roman" font-size="49.72201538" font-style="normal" font-weight="bold" style="stroke: rgb(50,0,86); stroke-width: 0.5; stroke-dasharray: none; stroke-linecap: butt; stroke-dashoffset: 0; stroke-linejoin: miter; stroke-miterlimit: 4; fill: rgb(50,0,86); fill-rule: nonzero; opacity: 1; white-space: pre;" ><tspan x="-38.7" y="15.62" >IIII</tspan></text>
	</g>

	<g transform="matrix(-0.81 0.47 -1.03 -1.78 878.72 973.9)" style="" id="text3308"  >
		<text xml:space="preserve" font-family="Times New Roman" font-size="49.72201538" font-style="normal" font-weight="bold" style="stroke: rgb(50,0,86); stroke-width: 0.5; stroke-dasharray: none; stroke-linecap: butt; stroke-dashoffset: 0; stroke-linejoin: miter; stroke-miterlimit: 4; fill: rgb(50,0,86); fill-rule: nonzero; opacity: 1; white-space: pre;" ><tspan x="-17.95" y="15.62" >V</tspan></text>
	</g>

	<g transform="matrix(-0.94 0 0 -2.06 749.44 1008.2)" style="" id="text3312"  >
		<text xml:space="preserve" font-family="Times New Roman" font-size="49.72201538" font-style="normal" font-weight="bold" style="stroke: rgb(50,0,86); stroke-width: 0.5; stroke-dasharray: none; stroke-linecap: butt; stroke-dashoffset: 0; stroke-linejoin: miter; stroke-miterlimit: 4; fill: rgb(50,0,86); fill-rule: nonzero; opacity: 1; white-space: pre;" ><tspan x="-27.63" y="15.62" >VI</tspan></text>
	</g>

	<g transform="matrix(-0.81 -0.47 1.03 -1.78 620.31 973.33)" style="" id="text3316"  >
		<text xml:space="preserve" font-family="Times New Roman" font-size="49.72201538" font-style="normal" font-weight="bold" style="stroke: rgb(50,0,86); stroke-width: 0.5; stroke-dasharray: none; stroke-linecap: butt; stroke-dashoffset: 0; stroke-linejoin: miter; stroke-miterlimit: 4; fill: rgb(50,0,86); fill-rule: nonzero; opacity: 1; white-space: pre;" ><tspan x="-37.3" y="15.62" >VII</tspan></text>
	</g>

	<g transform="matrix(-0.47 -0.81 1.78 -1.03 525.96 878.47)" style="" id="text3320"  >
		<text xml:space="preserve" font-family="Times New Roman" font-size="49.72201538" font-style="normal" font-weight="bold" style="stroke: rgb(50,0,86); stroke-width: 0.5; stroke-dasharray: none; stroke-linecap: butt; stroke-dashoffset: 0; stroke-linejoin: miter; stroke-miterlimit: 4; fill: rgb(50,0,86); fill-rule: nonzero; opacity: 1; white-space: pre;" ><tspan x="-46.98" y="15.62" >VIII</tspan></text>
	</g>

	<g transform="matrix(0 -0.94 2.06 0 491.7 749.26)" style="" id="text3324"  >
		<text xml:space="preserve" font-family="Times New Roman" font-size="49.72201538" font-style="normal" font-weight="bold" style="stroke: rgb(50,0,86); stroke-width: 0.5; stroke-dasharray: none; stroke-linecap: butt; stroke-dashoffset: 0; stroke-linejoin: miter; stroke-miterlimit: 4; fill: rgb(50,0,86); fill-rule: nonzero; opacity: 1; white-space: pre;" ><tspan x="-27.63" y="15.62" >IX</tspan></text>
	</g>

	<g transform="matrix(0.47 -0.81 1.78 1.03 526.54 620.17)" style="" id="text3328"  >
		<text xml:space="preserve" font-family="Times New Roman" font-size="49.72201538" font-style="normal" font-weight="bold" style="stroke: rgb(50,0,86); stroke-width: 0.5; stroke-dasharray: none; stroke-linecap: butt; stroke-dashoffset: 0; stroke-linejoin: miter; stroke-miterlimit: 4; fill: rgb(50,0,86); fill-rule: nonzero; opacity: 1; white-space: pre;" ><tspan x="-17.95" y="15.62" >X</tspan></text>
	</g>

	<g transform="matrix(0.81 -0.47 1.03 1.78 621.39 525.75)" style="" id="text3332"  >
		<text xml:space="preserve" font-family="Times New Roman" font-size="49.72201538" font-style="normal" font-weight="bold" style="stroke: rgb(50,0,86); stroke-width: 0.5; stroke-dasharray: none; stroke-linecap: butt; stroke-dashoffset: 0; stroke-linejoin: miter; stroke-miterlimit: 4; fill: rgb(50,0,86); fill-rule: nonzero; opacity: 1; white-space: pre;" ><tspan x="-27.63" y="15.62" >XI</tspan></text>
	</g>

	<g transform="matrix(1.39 0 0 -1.39 750.33 649.14)"  >
		<path style="stroke: none; stroke-width: 0.2; stroke-dasharray: none; stroke-linecap: butt; stroke-dashoffset: 0; stroke-linejoin: miter; stroke-miterlimit: 4; fill: none; fill-rule: nonzero; opacity: 1;" vector-effect="non-scaling-stroke"  transform=" translate(-328.28, -471.22)" d="M 473.77489 398.46518 C 473.77580375386 478.5707794349419 409.0267373782824 543.6094203842938 328.9219313911783 543.9659585095102 C 248.81712540407426 544.3224966347266 183.49167546964605 479.8628037723479 182.77951999999993 399.7603700000001" stroke-linecap="round" />
	</g>

	<g transform="matrix(0.72 1.19 -0.72 1.19 750.09 444.22)" id="rect2400"  >
		<rect style="stroke: rgb(50,0,86); stroke-width: 0.53; stroke-dasharray: none; stroke-linecap: butt; stroke-dashoffset: 0; stroke-linejoin: miter; stroke-miterlimit: 4; fill: rgb(50,0,86); fill-rule: nonzero; opacity: 1;" vector-effect="non-scaling-stroke"  x="-2.295" y="-2.295" rx="0" ry="0" width="4.59" height="4.59" />
	</g>

	<g transform="matrix(-0.72 -1.19 0.72 -1.19 750.09 1055.29)" id="rect3351"  >
		<rect style="stroke: rgb(50,0,86); stroke-width: 0.53; stroke-dasharray: none; stroke-linecap: butt; stroke-dashoffset: 0; stroke-linejoin: miter; stroke-miterlimit: 4; fill: rgb(50,0,86); fill-rule: nonzero; opacity: 1;" vector-effect="non-scaling-stroke"  x="-2.295" y="-2.295" rx="0" ry="0" width="4.59" height="4.59" />
	</g>

	<g transform="matrix(-1.19 0.72 -1.19 -0.72 1055.7 749.9)" id="rect3353"  >
		<rect style="stroke: rgb(50,0,86); stroke-width: 0.53; stroke-dasharray: none; stroke-linecap: butt; stroke-dashoffset: 0; stroke-linejoin: miter; stroke-miterlimit: 4; fill: rgb(50,0,86); fill-rule: nonzero; opacity: 1;" vector-effect="non-scaling-stroke"  x="-2.295" y="-2.295" rx="0" ry="0" width="4.59" height="4.59" />
	</g>

	<g transform="matrix(1.19 -0.72 1.19 0.72 444.63 749.89)" id="rect3355"  >
		<rect style="stroke: rgb(50,0,86); stroke-width: 0.53; stroke-dasharray: none; stroke-linecap: butt; stroke-dashoffset: 0; stroke-linejoin: miter; stroke-miterlimit: 4; fill: rgb(50,0,86); fill-rule: nonzero; opacity: 1;" vector-effect="non-scaling-stroke"  x="-2.295" y="-2.295" rx="0" ry="0" width="4.59" height="4.59" />
	</g>
</svg>